<svg viewBox="0 0 65.56 54.94" xmlns="http://www.w3.org/2000/svg"><g fill="#fff"><g transform="translate(0 11.54)"><path d="m26.75 25.46a1.5 1.5 0 1 0 1.5 1.5 1.5 1.5 0 0 0 -1.5-1.5z"/><path d="m53.09 25.46a1.5 1.5 0 1 0 1.5 1.5 1.5 1.5 0 0 0 -1.5-1.5z"/><path d="m53.44 8.36h-3.21c-3.81-5.06-6.5-8.36-12.23-8.36h-16.22a3.41 3.41 0 0 0 -3.41 3.22 46.86 46.86 0 0 1 -3.2 8c-.72 1.46-4.17 9.24-1.17 14 .88 1.4 2.71 3.07 6.4 3.19a6.48 6.48 0 0 0 12.6 0h13.73a6.48 6.48 0 0 0 12.61 0h2.45a3.77 3.77 0 0 0 3.77-3.77v-5.18c-.05-6.87-7.09-11.1-12.12-11.1zm9.12 16.29a.76.76 0 0 1 -.77.77h-3.1a2.21 2.21 0 0 0 -2.2 1.94 3.48 3.48 0 0 1 -6.91 0 2.21 2.21 0 0 0 -2.2-1.9h-15a2.21 2.21 0 0 0 -2.2 1.94 3.48 3.48 0 0 1 -6.93-.4 1.5 1.5 0 0 0 -1.5-1.5h-.9c-2.13 0-3.53-.59-4.3-1.8-1.55-2.52-.42-7.56 1.31-11.2 2.9-6.09 3.43-8.64 3.46-8.75a1.5 1.5 0 0 0 0-.3.42.42 0 0 1 .41-.45h12.12v11.2a1.5 1.5 0 0 0 3 0v-11.2h1.15c4.3 0 6.27 2.38 10.31 7.76a1.51 1.51 0 0 0 1.2.6h4a10.34 10.34 0 0 1 7.49 3.83h-1.25a1.5 1.5 0 1 0 0 3h2.66a6.78 6.78 0 0 1 .15 1.27z"/><path d="m13.89 9.66a1.5 1.5 0 0 0 -1.5-1.5h-5.39a1.5 1.5 0 0 0 0 3h5.36a1.5 1.5 0 0 0 1.53-1.47z"/><path d="m9.71 12.55h-8.21a1.5 1.5 0 0 0 0 3h8.21a1.5 1.5 0 0 0 0-3z"/><path d="m8.54 17.06h-5a1.5 1.5 0 1 0 0 3h5a1.5 1.5 0 0 0 0-3z"/></g><path d="m31.93 0h1.48" opacity="0"/><path d="m36.51 54.94h2.26" opacity="0"/></g></svg>