<?xml version="1.0" encoding="utf-8"?>
<!-- Generator: Adobe Illustrator 26.0.1, SVG Export Plug-In . SVG Version: 6.00 Build 0)  -->
<svg version="1.1" id="Calque_1" xmlns="http://www.w3.org/2000/svg" xmlns:xlink="http://www.w3.org/1999/xlink" x="0px" y="0px"
	 viewBox="0 0 149 33.5" style="enable-background:new 0 0 149 33.5;" xml:space="preserve">
<style type="text/css">
	.st0{fill:#434748;}
</style>
<g transform="translate(-40.31 -802.238)">
	<g transform="translate(42.348 802.238)">
		<path class="st0" d="M0.8,8.2V0.4H2l2.7,4l2.7-4h1.2v7.8h-1V1.8L4.9,5.8H4.7l-2.8-4v6.4L0.8,8.2z"/>
		<path class="st0" d="M10.7,8.2V0.4h5.5v0.9h-4.5v2.4h4.3v0.9h-4.3v2.6h4.7v0.9L10.7,8.2z"/>
		<path class="st0" d="M18,8.2V0.4h1.2l2.7,4l2.7-4h1.2v7.8h-1V1.8l-2.8,3.9h-0.2l-2.8-4v6.4H18z"/>
		<path class="st0" d="M27.9,8.2V0.4h3.4c0.3,0,0.7,0,1,0.1C32.7,0.6,33,0.8,33.2,1c0.2,0.2,0.4,0.4,0.6,0.7c0.1,0.3,0.2,0.6,0.2,1
			c0,0.3-0.1,0.7-0.3,1c-0.4-0.1-0.8,0.2-0.9,0.6C32.8,4.5,33,4.9,33.4,5c0.2,0,0.3,0,0.5-0.1c0.2,0.3,0.4,0.7,0.4,1.1
			c0,0.3-0.1,0.6-0.2,0.9c-0.1,0.2-0.2,0.4-0.4,0.6c-0.2,0.2-0.4,0.3-0.6,0.4c-0.3,0.1-0.5,0.2-0.8,0.2c-0.3,0-0.6,0.1-0.9,0.1
			L27.9,8.2z M28.9,3.8h2.5c0.4,0,0.8-0.1,1.2-0.3C32.9,3.3,33.1,3,33,2.6c0-0.4-0.2-0.7-0.5-1c-0.4-0.2-0.8-0.4-1.2-0.3h-2.4V3.8z
			 M28.9,7.3h2.4c0.2,0,0.4,0,0.6-0.1c0.2,0,0.4-0.1,0.6-0.2C32.8,7,33,6.9,33.1,6.7c0.2-0.4,0.2-0.9,0-1.3C33,5.2,32.8,5.1,32.7,5
			c-0.2-0.1-0.4-0.2-0.6-0.2c-0.2-0.1-0.4-0.1-0.6-0.1h-2.5V7.3z"/>
		<path class="st0" d="M35.8,8.2V0.4h3.6c0.4,0,0.8,0.1,1.2,0.2c0.3,0.1,0.6,0.3,0.8,0.6c0.2,0.2,0.4,0.5,0.5,0.8
			c0.1,0.3,0.2,0.6,0.2,0.9c0,0.3,0,0.6-0.1,0.8c-0.1,0.3-0.2,0.5-0.4,0.7c-0.2,0.2-0.4,0.4-0.7,0.6c-0.3,0.2-0.7,0.2-1,0.3l2.6,2.9
			h-1.2l-2.4-2.8h-1.9v2.8L35.8,8.2z M36.8,4.5h2.5c0.5,0,0.9-0.1,1.3-0.4c0.3-0.3,0.5-0.7,0.4-1.2c0-0.3-0.1-0.5-0.2-0.8
			c-0.1-0.3-0.3-0.5-0.6-0.6c-0.3-0.2-0.6-0.3-0.9-0.3h-2.6L36.8,4.5z"/>
		<path class="st0" d="M43.8,8.2V0.4h5.5v0.9h-4.5v2.4h4.3v0.9h-4.3v2.6h4.7v0.9L43.8,8.2z"/>
		<path class="st0" d="M54,8.2V0.4h2.9c0.5,0,1,0.1,1.4,0.2c0.4,0.1,0.8,0.3,1.1,0.6c0.3,0.2,0.6,0.5,0.8,0.9c0.2,0.3,0.4,0.7,0.5,1
			c0.1,0.4,0.1,0.7,0.1,1.1c0,0.4,0,0.8-0.1,1.2c-0.1,0.4-0.3,0.7-0.5,1.1c-0.2,0.3-0.5,0.6-0.8,0.9c-0.3,0.3-0.7,0.5-1.1,0.6
			c-0.5,0.2-1,0.2-1.4,0.2L54,8.2z M55,7.3h1.9c0.5,0,0.9-0.1,1.3-0.3c0.4-0.2,0.7-0.4,0.9-0.7c0.2-0.3,0.4-0.6,0.5-1
			c0.1-0.4,0.2-0.7,0.2-1.1c0-0.4-0.1-0.7-0.2-1.1c-0.1-0.3-0.3-0.6-0.5-0.9c-0.3-0.3-0.6-0.5-0.9-0.7c-0.4-0.2-0.9-0.3-1.3-0.2H55
			V7.3z"/>
		<path class="st0" d="M62.4,8.2V0.4h5.5v0.9h-4.5v2.4h4.3v0.9h-4.3v2.6h4.7v0.9L62.4,8.2z"/>
	</g>
	<path class="st0" d="M80.4,818.6c0-1.3,0.7-1.7,1.6-1.7h0.4c0.9,0,1.6,0.4,1.6,1.7v8.4c0,3,1.5,4.8,4.2,4.8c2.1,0,3.9-1.2,4.8-3
		c0,0,0,0,0,0v-10c0-1.3,0.7-1.7,1.6-1.7h0.4c0.9,0,1.6,0.4,1.6,1.7V834c0,0.3-0.6,0.5-1.3,0.5c-1.1,0-2.2-0.5-2.3-2.7
		c-1.3,1.9-3.5,3.1-5.8,3c-4.6,0-6.7-3.1-6.7-7.4L80.4,818.6z M99.2,832.9c0,1.3,0.7,1.7,1.6,1.7h0.4c0.9,0,1.6-0.4,1.6-1.7v-6.1
		c0-4,1.1-6.7,4-6.7c0.8,0,1.6,0.2,2.2,0.8c0.1,0.1,1.1-0.5,1.1-1.8c0-1.4-1.1-2.3-2.9-2.3c-2.2,0-3.7,1.2-4.4,3.3
		c0-2.4-1.2-3-2.2-3c-0.7,0-1.3,0.2-1.3,0.5V832.9z M119.2,816.6c-5.4,0-9.2,3.8-9.2,9.1c0,5.4,3.7,9.2,9.1,9.2
		c5.4,0,9.1-3.8,9.1-9.1C128.3,820.5,124.6,816.6,119.2,816.6 M119.2,832c-3.3,0-5.8-2.7-5.8-6.2s2.5-6.2,5.8-6.2
		c3.4,0,5.8,2.6,5.8,6.2C125,829.3,122.5,832,119.2,832 M130.3,832.9c0,1.3,0.7,1.7,1.6,1.7h0.4c0.9,0,1.6-0.4,1.6-1.7v-10.1
		c0.9-1.9,2.8-3.1,4.9-3c2.5,0,4,1.8,4,4.7v8.4c0,1.3,0.7,1.7,1.6,1.7h0.4c0.9,0,1.6-0.4,1.6-1.7v-8.8c0-4.3-2.1-7.4-6.8-7.4
		c-2.3,0-4.5,1.1-5.8,3.1c-0.1-2.3-1.2-2.8-2.2-2.8c-0.7,0-1.3,0.2-1.3,0.5L130.3,832.9z M148.9,812.5c0,1.3,0.8,2,2.1,2
		c1.4,0,2.1-0.7,2.1-2c0-1.3-0.8-2-2.1-2C149.7,810.4,148.9,811.2,148.9,812.5 M149.3,832.9c0,1.3,0.7,1.7,1.6,1.7h0.4
		c0.9,0,1.6-0.4,1.6-1.7v-14.2c0-1.3-0.7-1.7-1.6-1.7h-0.4c-0.9,0-1.6,0.4-1.6,1.7V832.9z M164.1,816.6c-5.2,0-9.1,3.8-9.1,9.1
		c0,5.3,3.8,9.2,9.1,9.2c5.2,0,7.5-3.2,7.5-4.8c0-1.5-2-1.8-2.1-1.6c-0.8,1.9-2.3,3.4-5.3,3.4c-3.3,0-5.7-2.6-5.7-6.2
		c0-3.5,2.5-6.1,5.7-6.1c3,0,4.5,1.5,5.3,3.4c0.1,0.2,2.1-0.1,2.1-1.6C171.6,819.8,169.3,816.6,164.1,816.6 M174.2,829.5
		c-0.8,0.2-1.3,0.8-1.4,1.6c0,1.7,2.5,3.7,7.4,3.7c4.5,0,7.3-2.1,7.3-5.4c0-3.7-3.7-4.5-6.4-5.1c-2.8-0.6-4.4-1-4.4-2.6
		c0-1.4,1.3-2.4,3.8-2.4c2,0,3.9,0.9,5.1,2.4c0,0,0,0,0,0c0.8-0.2,1.4-0.9,1.4-1.7c0-1.6-2.2-3.5-6.7-3.5c-4.2,0-7,2.2-7,5.4
		c0,3.7,3.6,4.5,6.1,5c2.9,0.6,4.5,0.9,4.5,2.7c0,1.4-1.4,2.3-3.8,2.3C177.4,832.1,175.4,831,174.2,829.5
		C174.3,829.5,174.3,829.5,174.2,829.5 M76.8,825.5c1.7-0.6,1.7-1.4,1.5-2.3c-0.5-2.8-2.9-6.6-8-6.6s-8.9,3.9-8.9,9.2
		c0,5.4,3.7,9,9.2,9c4.8,0,7.4-2.4,7.4-3.9c0-1.4-1.5-1.8-1.8-1.8c0,0-0.1,0-0.1,0.1c-0.9,1.5-2.4,2.8-5.5,2.8
		c-3.3,0-5.7-2.1-5.9-5.3l0,0c-0.1-0.8-0.1-1.7,0-2.5c0.4-2.9,2.6-4.9,5.5-4.9c2.4-0.1,4.4,1.6,4.8,3.9c0,0,0,0.1-0.1,0.1
		c-2.9,1.3-8.3,1.3-8.8,1.3c0,0,0,0,0,0c-0.1,0.7-0.1,1.5,0,2.2c0,0,0,0,0.1,0C69.8,827.1,73.4,826.6,76.8,825.5"/>
	<path class="st0" d="M54.6,828.3c0-0.6,0.8-0.8,0.9,0c0.2,1.6,0.6,5.8,0.6,6.4c0.1,0.7-0.7,1-1.2,0.4c-0.1-0.1-3.8-3.9-4.1-4.2
		c-0.2-0.3-0.5-0.3-0.8-0.2c-0.2,0.1-4,1.5-5.7,2.1c-1.2,0.5-1.8-0.4-1.2-1.2c0.9-1.3,3.4-4.7,3.5-4.8c0.2-0.3,0.2-0.5-0.2-1
		c-0.3-0.3-2.7-2.8-3.1-3.4c-0.4-0.5-1.3-1.2-1.1-1.9c0.1-0.5,0.6-0.8,1.1-0.7c0,0,0,0,0,0c0.7,0.1,4.8,1.4,6,1.6
		c0.2,0,0.4-0.3,0.8-0.9c1.3-2,2.4-3.6,2.9-4.3c0.7-0.9,1.7-0.7,1.8,0.5c0.1,1.5,0.4,4.6,0.5,5.9c0,0.3,0.2,0.6,0.5,0.7
		c1.3,0.5,2.7,0.8,4.1,1c0,0,0.1,0,0.1,0.1c-0.1,0.6-0.1,1.3-0.1,1.9c0,0,0,0.1-0.1,0.1c0,0,0,0,0,0c-1.3-0.2-3.9-0.7-5.6-1.6
		c-0.4-0.2-0.7-0.6-0.8-1.1c-0.1-0.4-0.2-3.4-0.3-4.5c-0.7,1-2.2,3.4-2.3,3.6c-0.4,0.5-1.1,0.7-1.7,0.5c-0.4-0.1-3-0.9-3.8-1.1
		c0.6,0.7,2.5,2.8,2.7,3c0.3,0.3,0.5,0.7,0.5,1.1c-0.1,0.4-0.3,0.7-0.6,1c-0.3,0.4-2.2,2.7-2.7,3.4c1-0.3,4.1-1.6,4.5-1.7
		c0.5-0.2,1.1-0.1,1.4,0.3c0.8,0.9,2.9,3.1,3.4,3.8L54.6,828.3"/>
</g>
</svg>
