<svg xmlns="http://www.w3.org/2000/svg" xmlns:xlink="http://www.w3.org/1999/xlink" width="52" height="45" viewBox="0 0 52 45">
  <defs>
    <clipPath id="clip-picto_52x45">
      <rect width="52" height="45"/>
    </clipPath>
  </defs>
  <g id="picto_52x45" clip-path="url(#clip-picto_52x45)">
    <g id="Groupe_1" data-name="Groupe 1" transform="translate(-0.001)">
      <g id="e" transform="translate(0 -8)">
        <g id="f" transform="translate(0 9.229)">
          <path id="g" d="M40.42,21.58a.978.978,0,0,0-.87-.77h0c-.38-.04-9.4-.92-13.63,3.3a8.742,8.742,0,0,0-2.48,7.08,10,10,0,0,1-7.46-4.9.992.992,0,0,0-1.73.97l.02.03a11.989,11.989,0,0,0,10.35,5.97c.2,0,.4,0,.6-.02a12,12,0,0,0,9.75-5.95.991.991,0,0,0-1.7-1.02l-.02.03a9.978,9.978,0,0,1-7.78,4.94v-.07a6.529,6.529,0,0,1,1.87-5.64c2.93-2.93,9.14-2.9,11.28-2.79.23,1.64.54,5.76-1.47,8.91a8.846,8.846,0,0,1-5.82,3.81.987.987,0,0,0,.21,1.95.82.82,0,0,0,.22-.02,10.737,10.737,0,0,0,7.06-4.68c3-4.7,1.67-10.87,1.61-11.13" fill="#434748"/>
          <path id="h" d="M27.89,34.33a1.09,1.09,0,1,0,1.09,1.09h0a1.093,1.093,0,0,0-1.09-1.09" fill="#434748"/>
          <path id="i" d="M41.1,16.23l9.69,3.02a.842.842,0,0,0,.27.04.937.937,0,0,0,.89-.65.947.947,0,0,0-.06-.7.958.958,0,0,0-.52-.45h-.03l-8.71-2.73a.462.462,0,0,1-.33-.45V10.44a.935.935,0,0,0-.93-.93H35.01a.935.935,0,0,0-.93.93v.97a.467.467,0,0,1-.46.47.34.34,0,0,1-.14-.02l-8.2-2.59-.12-.03a.881.881,0,0,0-.17-.02.929.929,0,0,0-.29.05L.63,17.5a.942.942,0,0,0-.53.47.925.925,0,0,0,.83,1.34,1.047,1.047,0,0,0,.3-.05l23.65-8.07a.478.478,0,0,1,.29,0l.11.04,9.46,2.98a.863.863,0,0,0,.28.04.958.958,0,0,0,.56-.18.915.915,0,0,0,.38-.75V11.84a.461.461,0,0,1,.47-.46h3.58a.467.467,0,0,1,.47.46h0v3.51a.921.921,0,0,0,.65.88" fill="#434748"/>
        </g>
      </g>
    </g>
  </g>
</svg>
