<?xml version="1.0" encoding="utf-8"?>
<!-- Generator: Adobe Illustrator 26.2.1, SVG Export Plug-In . SVG Version: 6.00 Build 0)  -->
<svg version="1.1" id="Calque_1" xmlns="http://www.w3.org/2000/svg" xmlns:xlink="http://www.w3.org/1999/xlink" x="0px" y="0px"
	 viewBox="0 0 70 60" style="enable-background:new 0 0 70 60;" xml:space="preserve">
<style type="text/css">
	.st0{clip-path:url(#SVGID_00000152251708983227871500000006478110844361194407_);}
	.st1{clip-path:url(#SVGID_00000076591520743939506070000013246095075537368963_);}
	.st2{fill:#FFFFFF;}
</style>
<g>
	<defs>
		<rect id="SVGID_1_" width="70" height="60"/>
	</defs>
	<clipPath id="SVGID_00000018939152680457052840000012653598641233109658_">
		<use xlink:href="#SVGID_1_"  style="overflow:visible;"/>
	</clipPath>
	<g id="_70x60" style="clip-path:url(#SVGID_00000018939152680457052840000012653598641233109658_);">
		<g id="Groupe_2" transform="translate(0 11)">
			<g>
				<defs>
					<rect id="SVGID_00000145024962984102521740000018062428779614205365_" width="70" height="37.9"/>
				</defs>
				<clipPath id="SVGID_00000170972341879698661480000004445093480662178234_">
					<use xlink:href="#SVGID_00000145024962984102521740000018062428779614205365_"  style="overflow:visible;"/>
				</clipPath>
				
					<g id="Groupe_1" transform="translate(0 0)" style="clip-path:url(#SVGID_00000170972341879698661480000004445093480662178234_);">
					<path id="Tracé_1" class="st2" d="M54.4,16.6c-0.1-0.6-0.6-1-1.2-1l0,0c-0.5-0.1-12.7-1.3-18.4,4.4c-2.5,2.5-3.7,6-3.3,9.5
						c-4.2-0.5-7.9-3-10.1-6.6c-0.3-0.6-1.2-0.9-1.8-0.5s-0.9,1.2-0.5,1.8c0,0,0,0,0,0.1c2.9,5,8.2,8,13.9,8c0.3,0,0.5,0,0.8,0
						c5.4-0.3,10.4-3.3,13.1-8c0.4-0.6,0.1-1.5-0.5-1.8c-0.6-0.4-1.4-0.1-1.8,0.5c-2.2,3.8-6.1,6.3-10.5,6.7c0,0,0-0.1,0-0.1
						c-0.4-2.8,0.5-5.6,2.5-7.6C40.7,18,49.1,18,52,18.2c0.3,2.2,0.7,7.7-2,12c-1.8,2.7-4.6,4.6-7.8,5.1c-0.7,0.2-1.2,0.9-1,1.6
						c0.1,0.6,0.7,1,1.3,1c0.1,0,0.2,0,0.3,0c3.9-0.7,7.3-3,9.5-6.3C56.3,25.3,54.5,17,54.4,16.6"/>
					<path id="Tracé_2" class="st2" d="M37.5,33.8c-0.8,0-1.5,0.7-1.5,1.5s0.7,1.5,1.5,1.5c0.8,0,1.5-0.7,1.5-1.5v0
						C39,34.4,38.4,33.8,37.5,33.8"/>
					<path id="Tracé_3" class="st2" d="M55.3,9.4l13,4.1c0.1,0,0.2,0.1,0.4,0.1c0.5,0,1-0.4,1.2-0.9c0.1-0.3,0.1-0.7-0.1-0.9
						c-0.1-0.3-0.4-0.5-0.7-0.6l0,0L57.4,7.5c-0.3-0.1-0.4-0.3-0.4-0.6V1.6c0-0.7-0.6-1.2-1.2-1.2h-8.6c-0.7,0-1.2,0.6-1.2,1.2v1.3
						c0,0.3-0.3,0.6-0.6,0.6c-0.1,0-0.1,0-0.2,0L34,0.1c-0.1,0-0.1,0-0.2,0c-0.1,0-0.1,0-0.2,0c-0.1,0-0.3,0-0.4,0.1L0.8,11.1
						c-0.3,0.1-0.6,0.3-0.7,0.6c-0.1,0.3-0.2,0.6-0.1,1c0.2,0.5,0.6,0.8,1.2,0.8c0.1,0,0.3,0,0.4-0.1L33.5,2.6c0.1,0,0.3,0,0.4,0
						l0.2,0l12.7,4c0.1,0,0.2,0.1,0.4,0.1c0.3,0,0.5-0.1,0.8-0.2c0.3-0.2,0.5-0.6,0.5-1v-2c0-0.3,0.3-0.6,0.6-0.6h4.8
						c0.3,0,0.6,0.3,0.6,0.6v4.7C54.5,8.8,54.8,9.3,55.3,9.4"/>
				</g>
			</g>
		</g>
	</g>
</g>
</svg>
