<?xml version="1.0" encoding="UTF-8"?><svg id="Calque_1" xmlns="http://www.w3.org/2000/svg" viewBox="0 0 25 25"><defs><style>.cls-1{fill:#fff;}</style></defs><path class="cls-1" d="M13.74,1.47c0-.71-.57-1.28-1.28-1.28s-1.28,.57-1.28,1.28,.57,1.28,1.28,1.28,1.28-.57,1.28-1.28"/><path class="cls-1" d="M21.72,9.93c0-.36-.29-.66-.66-.66s-.66,.29-.66,.66,.29,.66,.66,.66,.66-.29,.66-.66"/><path class="cls-1" d="M11.79,15.56h-.75v-3.37c0-.18-.04-.34-.13-.45-.1-.12-.23-.19-.39-.19-.14,0-.24,.03-.31,.1-.03,.03-.08,.09-.24,.32-.11,.15-.24,.3-.38,.42-.14,.12-.34,.24-.58,.36-.18,.09-.31,.15-.38,.21-.07,.05-.16,.16-.16,.36,0,.13,.05,.25,.14,.35,.1,.1,.21,.15,.34,.15s.36-.05,.93-.47v2.21h-.76c-.28,0-.52,.23-.52,.52s.23,.52,.52,.52h2.66c.28,0,.52-.23,.52-.52s-.23-.52-.52-.52Z"/><path class="cls-1" d="M12.5,24.81c-2.76,0-5.51-1.08-7.57-3.22-4.01-4.17-3.88-10.83,.3-14.84,4-3.85,10.3-3.88,14.34-.19l1.96-2.18c.24-.27,.65-.29,.91-.05,.26,.24,.29,.65,.05,.91l-2.41,2.68c-.12,.13-.29,.21-.47,.21-.18,0-.35-.07-.48-.2-3.52-3.66-9.35-3.78-13.01-.26-3.66,3.52-3.78,9.35-.26,13.01,3.52,3.66,9.35,3.78,13.01,.26,2.27-2.18,3.26-5.32,2.65-8.41-.07-.35,.16-.69,.51-.76,.35-.07,.69,.16,.76,.51,.69,3.52-.44,7.1-3.03,9.59-2.03,1.95-4.65,2.92-7.27,2.92Z"/><path class="cls-1" d="M16.58,13.77c-.02-.15-.07-.29-.14-.41-.11-.21-.27-.37-.48-.48-.33-.18-.78-.21-1.14-.1-.15,.04-.28,.11-.4,.19-.03,.02-.05,.04-.08,.06v-.94c0-.22-.05-.39-.16-.51-.22-.25-.68-.25-.9,0-.1,.12-.15,.29-.15,.51v3.86c0,.63,.42,.7,.6,.7s.34-.07,.45-.19c.1-.12,.16-.29,.16-.51v-1.18c0-.4,.03-.57,.06-.65,.05-.13,.13-.23,.23-.3,.1-.07,.21-.11,.33-.11,.23,0,.31,.08,.34,.15,.07,.13,.11,.32,.11,.58v1.5c0,.63,.42,.7,.6,.7s.33-.07,.44-.19c.11-.12,.16-.29,.16-.51v-1.71c0-.18-.01-.34-.03-.48Z"/></svg>