<svg viewBox="0 0 289.35 289.37" xmlns="http://www.w3.org/2000/svg"><g fill="#fff"><path d="m144.78 289.37q-6.34 0-12.77-.57a9 9 0 1 1 1.1-18 126.64 126.64 0 1 0 -69-28.32 9 9 0 0 1 -11.43 13.9 145.07 145.07 0 0 1 -44.34-160.24c26.76-75.14 109.66-114.51 184.8-87.75a144.69 144.69 0 0 1 -48.36 281z"/><path d="m122.29 126.51a9 9 0 0 1 -7.34-3.78c-2.11-2.92-9.09-10.45-16.14-10.45-4.68 0-9.52 3.53-14.4 10.42a9 9 0 1 1 -14.69-10.39c8.45-12 18.26-18 29.13-18 7.65 0 15.46 3.2 22.59 9.25a52.27 52.27 0 0 1 8.23 8.78 9 9 0 0 1 -7.34 14.2z"/><path d="m212.21 126.51a9 9 0 0 1 -7.33-3.78c-2.11-2.92-9.09-10.45-16.14-10.45-4.68 0-9.53 3.53-14.4 10.42a9 9 0 1 1 -14.7-10.39c8.46-12 18.26-18 29.14-18 7.65 0 15.45 3.2 22.59 9.25a52.27 52.27 0 0 1 8.23 8.78 9 9 0 0 1 -7.35 14.2z"/><path d="m142.79 232.39c-44.93 0-64.18-39.79-65-41.48a9 9 0 0 1 16.29-7.67c.6 1.24 15.35 31.15 48.69 31.15 35.77 0 51.81-30.14 52.48-31.43a9 9 0 0 1 16 8.19c-.81 1.69-21.46 41.24-68.46 41.24z"/><path d="m101.49 269.49a9.39 9.39 0 1 0 -9.39 9.36 9.39 9.39 0 0 0 9.39-9.36"/></g></svg>