<?xml version="1.0" encoding="UTF-8"?>
<svg id="_Шар_2" data-name="Шар 2" xmlns="http://www.w3.org/2000/svg" xmlns:xlink="http://www.w3.org/1999/xlink" viewBox="0 0 45.86 11.52">
  <defs>
    <style>
      .cls-1 {
        filter: url(#outer-glow-1);
      }

      .cls-1, .cls-2, .cls-3, .cls-4 {
        fill: #fff;
      }

      .cls-2 {
        filter: url(#outer-glow-3);
      }

      .cls-5 {
        fill: #3b3d3f;
      }

      .cls-3 {
        filter: url(#outer-glow-4);
      }

      .cls-4 {
        filter: url(#outer-glow-2);
      }
    </style>
    <filter id="outer-glow-1" filterUnits="userSpaceOnUse">
      <feOffset dx="0" dy="0"/>
      <feGaussianBlur result="blur" stdDeviation=".57"/>
      <feFlood flood-color="#dccf3e" flood-opacity=".2"/>
      <feComposite in2="blur" operator="in"/>
      <feComposite in="SourceGraphic"/>
    </filter>
    <filter id="outer-glow-2" filterUnits="userSpaceOnUse">
      <feOffset dx="0" dy="0"/>
      <feGaussianBlur result="blur-2" stdDeviation=".57"/>
      <feFlood flood-color="#dccf3e" flood-opacity=".2"/>
      <feComposite in2="blur-2" operator="in"/>
      <feComposite in="SourceGraphic"/>
    </filter>
    <filter id="outer-glow-3" filterUnits="userSpaceOnUse">
      <feOffset dx="0" dy="0"/>
      <feGaussianBlur result="blur-3" stdDeviation=".57"/>
      <feFlood flood-color="#dccf3e" flood-opacity=".2"/>
      <feComposite in2="blur-3" operator="in"/>
      <feComposite in="SourceGraphic"/>
    </filter>
    <filter id="outer-glow-4" filterUnits="userSpaceOnUse">
      <feOffset dx="0" dy="0"/>
      <feGaussianBlur result="blur-4" stdDeviation=".57"/>
      <feFlood flood-color="#dccf3e" flood-opacity=".2"/>
      <feComposite in2="blur-4" operator="in"/>
      <feComposite in="SourceGraphic"/>
    </filter>
  </defs>
  <g id="content">
    <g>
      <polygon class="cls-5" points="41.88 1.89 42.82 4.78 45.86 4.78 43.4 6.56 44.34 9.45 41.88 7.67 39.43 9.45 40.37 6.56 37.91 4.78 40.95 4.78 41.88 1.89"/>
      <polygon class="cls-1" points="32.84 1.89 33.78 4.78 36.81 4.78 34.36 6.56 35.3 9.45 32.84 7.67 30.38 9.45 31.32 6.56 28.87 4.78 31.9 4.78 32.84 1.89"/>
      <polygon class="cls-4" points="23.79 1.89 24.73 4.78 27.77 4.78 25.31 6.56 26.25 9.45 23.79 7.67 21.34 9.45 22.28 6.56 19.82 4.78 22.86 4.78 23.79 1.89"/>
      <polygon class="cls-2" points="14.75 1.89 15.69 4.78 18.72 4.78 16.27 6.56 17.2 9.45 14.75 7.67 12.29 9.45 13.23 6.56 10.78 4.78 13.81 4.78 14.75 1.89"/>
      <polygon class="cls-3" points="5.7 1.89 6.64 4.78 9.68 4.78 7.22 6.56 8.16 9.45 5.7 7.67 3.25 9.45 4.19 6.56 1.73 4.78 4.77 4.78 5.7 1.89"/>
    </g>
  </g>
</svg>