<?xml version="1.0" encoding="UTF-8"?>
<svg id="_Шар_2" data-name="Шар 2" xmlns="http://www.w3.org/2000/svg" viewBox="0 0 44.13 7.56">
  <defs>
    <style>
      .cls-1 {
        fill: #fff;
      }
    </style>
  </defs>
  <g id="content">
    <g>
      <polygon class="cls-1" points="40.15 0 41.09 2.89 44.13 2.89 41.67 4.67 42.61 7.56 40.15 5.77 37.7 7.56 38.64 4.67 36.18 2.89 39.22 2.89 40.15 0"/>
      <polygon class="cls-1" points="31.11 0 32.05 2.89 35.08 2.89 32.63 4.67 33.56 7.56 31.11 5.77 28.65 7.56 29.59 4.67 27.14 2.89 30.17 2.89 31.11 0"/>
      <polygon class="cls-1" points="22.06 0 23 2.89 26.04 2.89 23.58 4.67 24.52 7.56 22.06 5.77 19.61 7.56 20.55 4.67 18.09 2.89 21.13 2.89 22.06 0"/>
      <polygon class="cls-1" points="13.02 0 13.96 2.89 16.99 2.89 14.54 4.67 15.47 7.56 13.02 5.77 10.56 7.56 11.5 4.67 9.05 2.89 12.08 2.89 13.02 0"/>
      <polygon class="cls-1" points="3.97 0 4.91 2.89 7.95 2.89 5.49 4.67 6.43 7.56 3.97 5.77 1.52 7.56 2.46 4.67 0 2.89 3.04 2.89 3.97 0"/>
    </g>
  </g>
</svg>